<svg version="1.1" id="Calque_1" xmlns="http://www.w3.org/2000/svg" x="0" y="0" viewBox="0 0 800 800" style="enable-background:new 0 0 800 800" xml:space="preserve"><style>.st1{opacity:.15}.st2{fill:#00f}</style><path d="m107.3 577.9-28.5-14c-1.8-.9-3.9-.7-5.5.4-1.7 1.1-2.6 3-2.4 5l2.2 31.7c.1 1.9 1.3 3.7 3.1 4.6 1.8.9 3.9.7 5.5-.4l26.4-17.7c1.6-1.1 2.6-3 2.4-5-.3-2-1.4-3.8-3.2-4.6zm-23.9 12.7-.8-12.7 11.4 5.6-10.6 7.1z" style="opacity:.5;fill:#f0f;enable-background:new"/><g class="st1"><path class="st2" d="M111.6 321.3c-2.6 0-5.1-.4-7.5-1.2-1.2-.4-2.6 0-3.3.7l-4.7 3.6c-5.5-2.9-8.9-6.3-11.8-11.8l3.5-4.6c.9-.9 1.2-2.2.8-3.4-.8-2.4-1.2-5-1.2-7.5 0-1.9-1.5-3.4-3.4-3.4h-7.7c-1.9 0-3.4 1.5-3.4 3.4 0 21.4 17.4 38.8 38.8 38.8 1.9 0 3.4-1.5 3.4-3.4v-7.7c-.1-2-1.6-3.5-3.5-3.5z"/></g><g class="st1"><path class="st2" d="M231.1 241.9c-11 0-20 7.9-20 17.6 0 4.1 1.6 8.1 4.6 11.2.6 2.4-.1 5-1.9 6.7-.7.7-.2 2 .8 2 3.3 0 6.6-1.3 8.9-3.6 2.4.8 4.9 1.3 7.4 1.3 11 0 20.1-7.9 20.1-17.6.2-9.8-8.9-17.6-19.9-17.6zm-9.2 21c-1.9 0-3.5-1.6-3.5-3.5s1.6-3.5 3.5-3.5 3.5 1.6 3.5 3.5-1.5 3.5-3.5 3.5zm9.4 0c-1.9 0-3.5-1.6-3.5-3.5s1.6-3.5 3.5-3.5 3.5 1.6 3.5 3.5c0 2-1.6 3.5-3.5 3.5zm9.4 0c-1.9 0-3.5-1.6-3.5-3.5s1.6-3.5 3.5-3.5 3.5 1.6 3.5 3.5c0 2-1.6 3.5-3.5 3.5z"/></g><g class="st1"><path class="st2" d="M186 423.4h-26.2c-3.4 0-6.3 2.8-6.3 6.3v21.2c0 3.4 2.8 6.3 6.3 6.3H186c3.4 0 6.3-2.8 6.3-6.3v-21.2c.1-3.5-2.8-6.3-6.3-6.3zm20.4 3.5c-.4.1-.8.3-1.1.4l-9.8 5.6v14.6l9.9 5.6c1.8 1.1 4.1.4 5.2-1.4.3-.6.5-1.2.5-1.9v-19.4c0-2.2-2.2-4.1-4.7-3.5z"/></g><g class="st1"><path class="st2" d="M220.5 668.8h-26.2c-3.4 0-6.3 2.8-6.3 6.3v21.2c0 3.4 2.8 6.3 6.3 6.3h26.2c3.4 0 6.3-2.8 6.3-6.3v-21.2c0-3.5-2.9-6.3-6.3-6.3zm20.3 3.5c-.4.1-.8.3-1.1.4l-9.8 5.6V693l9.9 5.6c1.8 1.1 4.1.4 5.2-1.4.3-.6.5-1.2.5-1.9v-19.4c0-2.3-2.2-4.2-4.7-3.6z"/></g><g class="st1"><path class="st2" d="M659.6 682.3h-26.2c-3.4 0-6.3 2.8-6.3 6.3v21.2c0 3.4 2.8 6.3 6.3 6.3h26.2c3.4 0 6.3-2.8 6.3-6.3v-21.2c0-3.5-2.9-6.3-6.3-6.3zm20.3 3.5c-.4.1-.8.3-1.1.4l-9.8 5.6v14.6l9.9 5.6c1.8 1.1 4.1.4 5.2-1.4.3-.6.5-1.2.5-1.9v-19.4c0-2.2-2.2-4.1-4.7-3.5z"/></g><g class="st1"><path class="st2" d="M349.4 569.9c-2.6 0-5.1-.4-7.5-1.2-1.2-.4-2.6 0-3.3.7l-4.7 3.6c-5.5-2.9-8.9-6.3-11.8-11.8l3.5-4.6c.9-.9 1.2-2.2.8-3.4-.8-2.4-1.2-5-1.2-7.5 0-1.9-1.5-3.4-3.4-3.4h-7.7c-1.9 0-3.4 1.5-3.4 3.4 0 21.4 17.4 38.8 38.8 38.8 1.9 0 3.4-1.5 3.4-3.4v-7.7c-.1-1.9-1.6-3.5-3.5-3.5z"/></g><g class="st1"><path class="st2" d="M442.7 269.5c-2.6 0-5.1-.4-7.5-1.2-1.2-.4-2.6 0-3.3.7l-4.7 3.6c-5.5-2.9-8.9-6.3-11.8-11.8l3.5-4.6c.9-.9 1.2-2.2.8-3.4-.8-2.4-1.2-5-1.2-7.5 0-1.9-1.5-3.4-3.4-3.4h-7.7c-1.9 0-3.4 1.5-3.4 3.4 0 21.4 17.4 38.8 38.8 38.8 1.9 0 3.4-1.5 3.4-3.4V273c-.1-1.9-1.6-3.5-3.5-3.5z"/></g><g class="st1"><path class="st2" d="M538.6 553.1c-11 0-20 7.9-20 17.6 0 4.1 1.6 8.1 4.6 11.2.6 2.4-.1 5-1.9 6.7-.7.7-.2 2 .8 2 3.3 0 6.6-1.3 8.9-3.6 2.4.8 4.9 1.3 7.4 1.3 11 0 20.1-7.9 20.1-17.6.2-9.7-8.9-17.6-19.9-17.6zm-9.2 21.1c-1.9 0-3.5-1.6-3.5-3.5s1.6-3.5 3.5-3.5 3.5 1.6 3.5 3.5-1.6 3.5-3.5 3.5zm9.3 0c-1.9 0-3.5-1.6-3.5-3.5s1.6-3.5 3.5-3.5 3.5 1.6 3.5 3.5c.1 1.9-1.5 3.5-3.5 3.5zm9.4 0c-1.9 0-3.5-1.6-3.5-3.5s1.6-3.5 3.5-3.5 3.5 1.6 3.5 3.5c.1 1.9-1.5 3.5-3.5 3.5z"/></g><g class="st1"><path class="st2" d="M600.3 303.8h-26.2c-3.4 0-6.3 2.8-6.3 6.3v21.2c0 3.4 2.8 6.3 6.3 6.3h26.2c3.4 0 6.3-2.8 6.3-6.3v-21.2c0-3.5-2.8-6.3-6.3-6.3zm20.3 3.4c-.4.1-.8.3-1.1.4l-9.8 5.6v14.6l9.9 5.6c1.8 1.1 4.1.4 5.2-1.4.3-.6.5-1.2.5-1.9v-19.4c0-2.1-2.2-4-4.7-3.5z"/></g><g class="st1"><path class="st2" d="M636.9 106.8c-11 0-20 7.9-20 17.6 0 4.1 1.6 8.1 4.6 11.2.6 2.4-.1 5-1.9 6.7-.7.7-.2 2 .8 2 3.3 0 6.6-1.3 8.9-3.6 2.4.8 4.9 1.3 7.4 1.3 11 0 20.1-7.9 20.1-17.6s-8.9-17.6-19.9-17.6zm-9.3 21.1c-1.9 0-3.5-1.6-3.5-3.5s1.6-3.5 3.5-3.5 3.5 1.6 3.5 3.5c.1 2-1.5 3.5-3.5 3.5zm9.4 0c-1.9 0-3.5-1.6-3.5-3.5s1.6-3.5 3.5-3.5 3.5 1.6 3.5 3.5c.1 2-1.5 3.5-3.5 3.5zm9.4 0c-1.9 0-3.5-1.6-3.5-3.5s1.6-3.5 3.5-3.5 3.5 1.6 3.5 3.5c0 2-1.5 3.5-3.5 3.5z"/></g><g class="st1"><path class="st2" d="M340 83.9h-26.3c-3.4 0-6.3 2.8-6.3 6.3v21.2c0 3.4 2.8 6.3 6.3 6.3h26.2c3.4 0 6.3-2.8 6.3-6.3V90.2c.1-3.5-2.8-6.3-6.2-6.3zm20.3 3.4c-.4.1-.8.3-1.1.4l-9.8 5.7V108l9.9 5.6c1.8 1.1 4.1.4 5.2-1.4.3-.6.5-1.2.5-1.9V91c-.1-2.3-2.3-4.2-4.7-3.7z"/></g><g class="st1"><path class="st2" d="M706.8 254.1c2.2 0 4.1-.8 5.7-2.4 1.6-1.6 2.4-3.5 2.4-5.7v-13c0-2.2-.8-4.1-2.4-5.7-1.6-1.6-3.5-2.4-5.7-2.4s-4.1.8-5.7 2.4c-1.6 1.6-2.4 3.5-2.4 5.7v13c0 2.2.8 4.1 2.4 5.7s3.5 2.4 5.7 2.4z"/><path class="st2" d="M720.9 241.6c-.3-.3-.7-.5-1.1-.5-.4 0-.8.2-1.1.5-.3.3-.5.7-.5 1.1v3.3c0 3.1-1.1 5.8-3.3 8-2.2 2.2-4.9 3.3-8 3.3-3.1 0-5.8-1.1-8-3.3-2.2-2.2-3.3-4.9-3.3-8v-3.3c0-.4-.2-.8-.5-1.1-.3-.3-.7-.5-1.1-.5-.4 0-.8.2-1.1.5-.3.3-.5.7-.5 1.1v3.3c0 3.7 1.2 7 3.7 9.8 2.5 2.8 5.6 4.4 9.3 4.8v3.4h-6.5c-.4 0-.8.2-1.1.5-.3.3-.5.7-.5 1.1 0 .4.2.8.5 1.1.3.3.7.5 1.1.5h16.2c.4 0 .8-.2 1.1-.5.3-.3.5-.7.5-1.1 0-.4-.2-.8-.5-1.1-.3-.3-.7-.5-1.1-.5h-6.5v-3.4c3.7-.4 6.8-2 9.3-4.8 2.5-2.8 3.7-6 3.7-9.8v-3.3c-.2-.4-.3-.8-.7-1.1z"/></g><g class="st1"><path class="st2" d="M659.7 487c2.2 0 4.1-.8 5.7-2.4 1.6-1.6 2.4-3.5 2.4-5.7v-13c0-2.2-.8-4.1-2.4-5.7-1.6-1.6-3.5-2.4-5.7-2.4s-4.1.8-5.7 2.4c-1.6 1.6-2.4 3.5-2.4 5.7v13c0 2.2.8 4.1 2.4 5.7s3.5 2.4 5.7 2.4z"/><path class="st2" d="M673.8 474.4c-.3-.3-.7-.5-1.1-.5-.4 0-.8.2-1.1.5-.3.3-.5.7-.5 1.1v3.3c0 3.1-1.1 5.8-3.3 8-2.2 2.2-4.9 3.3-8 3.3-3.1 0-5.8-1.1-8-3.3-2.2-2.2-3.3-4.9-3.3-8v-3.3c0-.4-.2-.8-.5-1.1-.3-.3-.7-.5-1.1-.5-.4 0-.8.2-1.1.5-.3.3-.5.7-.5 1.1v3.3c0 3.7 1.2 7 3.7 9.8 2.5 2.8 5.6 4.4 9.3 4.8v3.4h-6.5c-.4 0-.8.2-1.1.5-.3.3-.5.7-.5 1.1 0 .4.2.8.5 1.1.3.3.7.5 1.1.5H668c.4 0 .8-.2 1.1-.5.3-.3.5-.7.5-1.1 0-.4-.2-.8-.5-1.1-.3-.3-.7-.5-1.1-.5h-6.5v-3.4c3.7-.4 6.8-2 9.3-4.8 2.5-2.8 3.7-6 3.7-9.8v-3.3c-.2-.4-.3-.7-.7-1.1z"/></g><g class="st1"><path class="st2" d="M444.2 699.3c2.2 0 4.1-.8 5.7-2.4 1.6-1.6 2.4-3.5 2.4-5.7v-13c0-2.2-.8-4.1-2.4-5.7-1.6-1.6-3.5-2.4-5.7-2.4s-4.1.8-5.7 2.4c-1.6 1.6-2.4 3.5-2.4 5.7v13c0 2.2.8 4.1 2.4 5.7 1.5 1.6 3.4 2.4 5.7 2.4z"/><path class="st2" d="M458.3 686.8c-.3-.3-.7-.5-1.1-.5-.4 0-.8.2-1.1.5-.3.3-.5.7-.5 1.1v3.3c0 3.1-1.1 5.8-3.3 8-2.2 2.2-4.9 3.3-8 3.3-3.1 0-5.8-1.1-8-3.3-2.2-2.2-3.3-4.9-3.3-8v-3.3c0-.4-.2-.8-.5-1.1-.3-.3-.7-.5-1.1-.5-.4 0-.8.2-1.1.5-.3.3-.5.7-.5 1.1v3.3c0 3.7 1.2 7 3.7 9.8 2.5 2.8 5.6 4.4 9.3 4.8v3.4h-6.5c-.4 0-.8.2-1.1.5-.3.3-.5.7-.5 1.1 0 .4.2.8.5 1.1.3.3.7.5 1.1.5h16.2c.4 0 .8-.2 1.1-.5.3-.3.5-.7.5-1.1 0-.4-.2-.8-.5-1.1-.3-.3-.7-.5-1.1-.5H446v-3.4c3.7-.4 6.8-2 9.3-4.8 2.5-2.8 3.7-6 3.7-9.8v-3.3c-.2-.4-.4-.8-.7-1.1z"/></g><g class="st1"><path class="st2" d="M106.8 136.1c2.2 0 4.1-.8 5.7-2.4 1.6-1.6 2.4-3.5 2.4-5.7v-13c0-2.2-.8-4.1-2.4-5.7-1.6-1.6-3.5-2.4-5.7-2.4s-4.1.8-5.7 2.4c-1.6 1.6-2.4 3.5-2.4 5.7v13c0 2.2.8 4.1 2.4 5.7s3.5 2.4 5.7 2.4z"/><path class="st2" d="M120.9 123.6c-.3-.3-.7-.5-1.1-.5-.4 0-.8.2-1.1.5-.3.3-.5.7-.5 1.1v3.3c0 3.1-1.1 5.8-3.3 8-2.2 2.2-4.9 3.3-8 3.3-3.1 0-5.8-1.1-8-3.3-2.2-2.2-3.3-4.9-3.3-8v-3.3c0-.4-.2-.8-.5-1.1-.3-.3-.7-.5-1.1-.5s-.8.2-1.1.5c-.3.3-.5.7-.5 1.1v3.3c0 3.7 1.2 7 3.7 9.8 2.5 2.8 5.6 4.4 9.3 4.8v3.4h-6.5c-.4 0-.8.2-1.1.5-.3.3-.5.7-.5 1.1 0 .4.2.8.5 1.1.3.3.7.5 1.1.5h16.2c.4 0 .8-.2 1.1-.5.3-.3.5-.7.5-1.1 0-.4-.2-.8-.5-1.1-.3-.3-.7-.5-1.1-.5h-6.5v-3.4c3.7-.4 6.8-2 9.3-4.8 2.5-2.8 3.7-6 3.7-9.8v-3.3c-.2-.4-.3-.8-.7-1.1z"/></g><g class="st1"><path class="st2" d="M477.9 145.6c2.2 0 4.1-.8 5.7-2.4 1.6-1.6 2.4-3.5 2.4-5.7v-13c0-2.2-.8-4.1-2.4-5.7-1.6-1.6-3.5-2.4-5.7-2.4s-4.1.8-5.7 2.4c-1.6 1.6-2.4 3.5-2.4 5.7v13c0 2.2.8 4.1 2.4 5.7 1.5 1.6 3.5 2.4 5.7 2.4z"/><path class="st2" d="M492 133c-.3-.3-.7-.5-1.1-.5-.4 0-.8.2-1.1.5-.3.3-.5.7-.5 1.1v3.3c0 3.1-1.1 5.8-3.3 8-2.2 2.2-4.9 3.3-8 3.3-3.1 0-5.8-1.1-8-3.3-2.2-2.2-3.3-4.9-3.3-8v-3.3c0-.4-.2-.8-.5-1.1-.3-.3-.7-.5-1.1-.5-.4 0-.8.2-1.1.5-.3.3-.5.7-.5 1.1v3.3c0 3.7 1.2 7 3.7 9.8 2.5 2.8 5.6 4.4 9.3 4.8v3.4H470c-.4 0-.8.2-1.1.5-.3.3-.5.7-.5 1.1 0 .4.2.8.5 1.1.3.3.7.5 1.1.5h16c.4 0 .8-.2 1.1-.5.3-.3.5-.7.5-1.1 0-.4-.2-.8-.5-1.1-.3-.3-.7-.5-1.1-.5h-6.5V152c3.7-.4 6.8-2 9.3-4.8 2.5-2.8 3.7-6 3.7-9.8v-3.3c0-.4-.1-.7-.5-1.1z"/></g></svg>